<?xml version="1.0" standalone="no"?>
<!DOCTYPE svg PUBLIC "-//W3C//DTD SVG 20010904//EN"
 "http://www.w3.org/TR/2001/REC-SVG-20010904/DTD/svg10.dtd">
<svg version="1.0" xmlns="http://www.w3.org/2000/svg"
 width="1280.000000pt" height="298.000000pt" viewBox="0 0 1280.000000 298.000000"
 preserveAspectRatio="xMidYMid meet">

<g transform="translate(0.000000,298.000000) scale(0.100000,-0.100000)"
fill="#000000" stroke="none">
<path d="M3452 2969 c-329 -42 -599 -296 -679 -637 -17 -71 -18 -138 -18 -857
0 -776 0 -780 22 -857 29 -98 63 -174 110 -245 112 -168 284 -295 472 -345
106 -28 296 -28 402 0 251 67 468 268 558 516 43 119 52 189 49 361 l-3 150
-225 3 c-124 1 -235 0 -247 -3 -21 -5 -22 -11 -25 -153 -3 -134 -5 -152 -29
-203 -120 -256 -438 -259 -556 -5 l-28 61 -3 695 c-3 726 -1 784 40 864 26 53
83 112 133 139 33 18 57 22 130 22 78 0 97 -4 141 -27 58 -31 113 -90 146
-157 20 -40 24 -67 28 -196 l5 -150 249 -3 249 -2 -6 172 c-5 191 -23 280 -77
397 -91 193 -276 360 -470 425 -125 41 -238 52 -368 35z"/>
<path d="M11816 2953 c-248 -53 -477 -244 -577 -481 -46 -110 -62 -217 -56
-361 6 -153 30 -253 91 -376 93 -187 186 -271 493 -445 439 -248 464 -266 508
-355 30 -60 27 -163 -7 -236 -57 -124 -158 -194 -283 -193 -87 0 -147 25 -209
87 -82 82 -106 161 -106 349 l0 108 -245 0 -245 0 -6 -27 c-11 -41 4 -300 21
-373 70 -298 304 -544 594 -622 101 -27 286 -29 386 -3 237 60 443 229 545
446 90 193 102 451 31 640 -47 125 -168 268 -299 358 -34 23 -178 105 -319
182 -142 77 -273 152 -291 165 -97 74 -143 151 -162 267 -33 212 107 397 301
398 118 1 216 -57 272 -160 34 -62 47 -161 47 -373 l0 -148 246 0 246 0 -4
263 c-4 253 -5 265 -31 342 -95 282 -325 491 -606 550 -90 19 -244 18 -335 -2z"/>
<path d="M4 2917 c-2 -7 -3 -653 -2 -1436 3 -1251 5 -1423 18 -1432 20 -13
446 -7 459 6 7 7 6 244 -5 749 -8 406 -13 743 -12 748 2 5 164 -331 361 -749
l356 -758 188 0 188 0 0 1440 0 1440 -230 0 -230 0 2 -425 c1 -234 5 -598 8
-810 4 -259 2 -380 -4 -370 -6 8 -164 374 -353 813 l-342 797 -198 0 c-155 0
-200 -3 -204 -13z"/>
<path d="M1932 1488 l3 -1443 245 0 245 0 0 1440 0 1440 -248 3 -247 2 2
-1442z"/>
<path d="M5942 1488 l3 -1443 660 -3 c363 -1 670 0 683 3 l22 5 0 250 0 250
-435 0 -435 0 0 1190 0 1190 -250 0 -250 0 2 -1442z"/>
<path d="M7956 2903 c-3 -16 -121 -662 -261 -1438 -189 -1048 -251 -1411 -242
-1417 15 -10 458 -10 473 0 6 4 21 75 34 157 12 83 24 153 27 158 2 4 130 7
283 7 l278 0 6 -27 c3 -16 13 -80 21 -143 25 -179 -6 -160 270 -160 194 0 237
3 241 14 5 14 -482 2851 -492 2868 -3 4 -146 8 -319 8 l-313 0 -6 -27z m413
-1418 c50 -341 93 -632 95 -647 l6 -28 -200 0 c-110 0 -200 3 -200 8 0 4 42
277 95 607 52 330 97 623 101 650 4 28 8 46 10 40 2 -5 44 -289 93 -630z"/>
<path d="M9365 2918 c-3 -7 -4 -656 -3 -1443 l3 -1430 345 -3 c489 -4 612 9
767 83 188 88 334 236 422 427 52 112 71 192 78 328 4 92 1 134 -15 211 -30
143 -107 298 -199 399 l-32 37 45 49 c101 107 174 240 205 372 31 127 23 282
-20 412 -89 267 -296 466 -566 546 -53 15 -118 18 -543 21 -391 3 -483 2 -487
-9z m947 -511 c33 -16 76 -49 102 -78 121 -134 113 -322 -19 -455 -75 -76
-108 -84 -342 -84 l-193 0 0 326 0 326 198 -4 c192 -3 198 -4 254 -31z m-143
-1127 c86 -14 146 -47 209 -114 78 -83 97 -130 97 -246 0 -85 -3 -101 -29
-155 -38 -76 -110 -149 -184 -183 -54 -25 -67 -27 -229 -30 l-173 -4 0 371 0
371 123 0 c67 0 151 -5 186 -10z"/>
<path d="M4697 1723 c-4 -3 -7 -111 -7 -239 l0 -234 23 -5 c12 -3 200 -4 417
-3 l395 3 0 240 0 240 -411 3 c-226 1 -413 -1 -417 -5z"/>
</g>
</svg>
